<svg width="101" height="12" viewBox="0 0 101 12" fill="none" xmlns="http://www.w3.org/2000/svg">
<path d="M50.0105 4.61011C49.4998 5.57638 49.5086 6.71052 50.0105 7.73091C50.5133 6.71052 50.5212 5.57638 50.0105 4.61011ZM87.3306 8.81953C80.4819 8.79566 68.2252 8.51696 68.1559 8.56754C62.8331 12.4876 55.8975 12.3323 53.3572 11.5639C51.6988 11.0624 50.6519 10.3075 50.0105 9.66424C49.3691 10.3075 48.3222 11.0624 46.6638 11.5639C44.1235 12.3323 37.1879 12.4876 31.8651 8.56754C31.7957 8.51696 19.5391 8.79566 12.6903 8.81953C-3.54217 8.87809 0.428672 8.20189 0.428672 8.07154C24.7788 8.07154 -3.71943 7.60474 12.5096 7.66507C19.9673 7.69276 31.9019 7.54963 32.2266 8.16204C32.2301 8.16382 32.2336 8.16204 32.2362 8.16382C33.9061 9.19388 36.3323 10.4957 37.71 10.7983C45.5169 12.5143 48.2634 9.95953 49.3234 8.74118C48.1599 6.75657 48.5969 4.67488 49.1751 3.76194C49.1962 3.72902 49.226 3.70578 49.248 3.67321C48.2011 2.77864 46.2435 1.99259 44.2419 3.98554C42.9073 6.27832 44.5218 8.09275 45.7021 8.02966C47.3666 7.94022 47.2148 6.80724 47.1824 6.43253C47.1525 6.0793 46.9402 5.79474 46.569 5.60938C46.2882 5.46901 45.9092 5.04755 46.046 4.76361C46.3619 4.10959 47.1008 4.3047 47.3816 4.44507C48.1055 4.807 48.3933 5.58339 48.3134 6.33413C48.2231 7.17706 47.8879 9.28883 45.2431 8.73604C44.5025 8.58076 42.3948 7.4751 43.3355 4.29157C42.8555 4.56051 41.2383 5.51781 40.9171 5.70326C40.0054 6.2942 39.7194 6.81584 39.4456 7.48309C39.2429 7.97731 39.4667 8.71386 39.8729 8.88954C40.1248 8.99877 40.5109 8.91864 40.668 8.7253C40.8347 8.52042 40.6776 8.20188 40.524 7.96586C40.1581 7.40438 41.0339 6.68106 41.6832 7.3271C42.5089 8.14785 42.0193 9.20533 41.6033 9.55155C41.119 9.95536 40.0458 10.2161 39.285 9.57551C38.8393 9.2001 38.0399 7.89035 39.6957 6.16394C38.6866 6.90288 36.9202 7.23038 35.8128 6.94822C34.2737 6.55692 33.1839 5.43884 33.1049 3.83647C33.0146 1.97315 34.3431 0.769094 35.0064 0.369811C35.8936 -0.162567 37.3844 -0.0960203 38.0671 0.414885C39.5114 1.49588 39.5 4.43265 37.2686 4.51614C36.557 4.54285 35.7514 4.05102 35.5329 3.47987C35.1723 2.53463 35.8085 2.24901 36.0778 2.19737C37.1203 1.99711 37.0273 3.46008 37.8179 2.77003C38.2207 2.41751 37.9302 1.58186 37.4546 1.20475C36.9869 0.833864 36.2507 0.748597 35.5794 0.987458C34.5036 1.37077 33.7315 2.52949 33.7832 3.68191C33.835 4.83469 34.7081 5.91612 35.8146 6.19926C36.4885 6.37148 37.6213 6.45054 38.4909 6.10946C40.5074 5.31994 43.8716 2.79567 45.0896 2.32461C45.3765 2.16312 45.6608 2.04591 45.9135 1.97387C46.3786 1.84246 46.8428 1.7815 47.2938 1.78771C48.3143 1.80093 49.2585 2.17279 50.0105 2.81954C50.7625 2.17279 51.7067 1.80093 52.7272 1.78771C53.1782 1.7815 53.6424 1.84246 54.1074 1.97387C54.3602 2.04591 54.6436 2.16312 54.9314 2.32461C56.1494 2.79567 59.5136 5.31994 61.5292 6.10946C62.3996 6.45054 63.5325 6.37148 64.2064 6.19926C65.3129 5.91612 66.186 4.83469 66.2377 3.68191C66.2895 2.52949 65.5173 1.37077 64.4415 0.987458C63.7703 0.748597 63.0341 0.833864 62.5664 1.20475C62.0908 1.58186 61.8003 2.41751 62.2031 2.77003C62.9937 3.46008 62.9007 1.99711 63.9431 2.19737C64.2125 2.24901 64.8487 2.53463 64.488 3.47987C64.2696 4.05102 63.464 4.54285 62.7524 4.51614C60.5209 4.43265 60.5095 1.49588 61.9539 0.414885C62.6365 -0.0960203 64.1274 -0.162567 65.0145 0.369811C65.6779 0.769094 67.0064 1.97315 66.916 3.83647C66.8371 5.43884 65.7472 6.55692 64.2081 6.94822C63.1008 7.23038 61.3344 6.90288 60.3253 6.16394C61.9811 7.89035 61.1817 9.2001 60.7359 9.57551C59.9752 10.2161 58.902 9.95536 58.4168 9.55155C58.0017 9.20533 57.5121 8.14785 58.3378 7.3271C58.9871 6.68106 59.8628 7.40438 59.4969 7.96586C59.3434 8.20188 59.1863 8.52042 59.353 8.7253C59.5101 8.91864 59.8962 8.99877 60.148 8.88954C60.5543 8.71386 60.7781 7.97731 60.5754 7.48309C60.3016 6.81584 60.0155 6.2942 59.1038 5.70326C58.7827 5.51781 57.1655 4.56051 56.6855 4.29157C57.6262 7.4751 55.5184 8.58076 54.7779 8.73604C52.1331 9.28883 51.7979 7.17706 51.7084 6.33413C51.6277 5.58339 51.9146 4.807 52.6394 4.44507C52.9202 4.3047 53.6591 4.10959 53.9749 4.76361C54.1127 5.04755 53.7328 5.46901 53.452 5.60938C53.0808 5.79474 52.8684 6.0793 52.8386 6.43253C52.8061 6.80724 52.6552 7.94022 54.3189 8.02966C55.4991 8.09275 57.1137 6.27832 55.7791 3.98554C53.7775 1.99259 51.8199 2.77864 50.773 3.67321C50.795 3.70578 50.8248 3.72902 50.8459 3.76194C51.4241 4.67488 51.8611 6.75657 50.6976 8.74118C51.7576 9.95953 54.5041 12.5143 62.311 10.7983C63.6887 10.4957 66.1149 9.19388 67.7847 8.16382C67.7874 8.16204 67.7909 8.16382 67.7944 8.16204C68.1191 7.54963 80.0537 7.69276 87.5114 7.66507C103.74 7.60474 100.79 8.20189 100.79 8.33321C100.79 8.46355 103.563 8.87809 87.3306 8.81953Z" fill="#E4A840" fill-opacity="0.9"/>
</svg>
