<svg width="101" height="12" viewBox="0 0 101 12" fill="none" xmlns="http://www.w3.org/2000/svg">
<path d="M50.0105 7.38989C49.4998 6.42362 49.5086 5.28948 50.0105 4.26909C50.5133 5.28948 50.5212 6.42362 50.0105 7.38989ZM87.3306 3.18047C80.4819 3.20434 68.2252 3.48304 68.1559 3.43246C62.8331 -0.487614 55.8975 -0.332337 53.3572 0.436061C51.6988 0.937561 50.6519 1.69247 50.0105 2.33576C49.3691 1.69247 48.3222 0.937561 46.6638 0.436061C44.1235 -0.332337 37.1879 -0.487614 31.8651 3.43246C31.7957 3.48304 19.5391 3.20434 12.6903 3.18047C-3.54217 3.12191 0.428672 3.79811 0.428672 3.92846C24.7788 3.92846 -3.71943 4.39526 12.5096 4.33493C19.9673 4.30724 31.9019 4.45037 32.2266 3.83796C32.2301 3.83618 32.2336 3.83796 32.2362 3.83618C33.9061 2.80612 36.3323 1.50428 37.71 1.20171C45.5169 -0.51432 48.2634 2.04047 49.3234 3.25882C48.1599 5.24343 48.5969 7.32512 49.1751 8.23806C49.1962 8.27098 49.226 8.29422 49.248 8.32679C48.2011 9.22136 46.2435 10.0074 44.2419 8.01446C42.9073 5.72168 44.5218 3.90725 45.7021 3.97034C47.3666 4.05978 47.2148 5.19276 47.1824 5.56747C47.1525 5.9207 46.9402 6.20526 46.569 6.39062C46.2882 6.53099 45.9092 6.95245 46.046 7.23639C46.3619 7.89041 47.1008 7.6953 47.3816 7.55493C48.1055 7.193 48.3933 6.41661 48.3134 5.66587C48.2231 4.82294 47.8879 2.71117 45.2431 3.26396C44.5025 3.41924 42.3948 4.5249 43.3355 7.70843C42.8555 7.43949 41.2383 6.48219 40.9171 6.29674C40.0054 5.7058 39.7194 5.18416 39.4456 4.51691C39.2429 4.02269 39.4667 3.28614 39.8729 3.11046C40.1248 3.00123 40.5109 3.08136 40.668 3.2747C40.8347 3.47958 40.6776 3.79812 40.524 4.03414C40.1581 4.59562 41.0339 5.31894 41.6832 4.6729C42.5089 3.85215 42.0193 2.79467 41.6033 2.44845C41.119 2.04464 40.0458 1.78395 39.285 2.42449C38.8393 2.7999 38.0399 4.10965 39.6957 5.83606C38.6866 5.09712 36.9202 4.76962 35.8128 5.05178C34.2737 5.44308 33.1839 6.56116 33.1049 8.16353C33.0146 10.0268 34.3431 11.2309 35.0064 11.6302C35.8936 12.1626 37.3844 12.096 38.0671 11.5851C39.5114 10.5041 39.5 7.56735 37.2686 7.48386C36.557 7.45715 35.7514 7.94898 35.5329 8.52013C35.1723 9.46537 35.8085 9.75099 36.0778 9.80263C37.1203 10.0029 37.0273 8.53992 37.8179 9.22997C38.2207 9.58249 37.9302 10.4181 37.4546 10.7952C36.9869 11.1661 36.2507 11.2514 35.5794 11.0125C34.5036 10.6292 33.7315 9.47051 33.7832 8.31809C33.835 7.16531 34.7081 6.08388 35.8146 5.80074C36.4885 5.62852 37.6213 5.54946 38.4909 5.89054C40.5074 6.68006 43.8716 9.20433 45.0896 9.67539C45.3765 9.83688 45.6608 9.95409 45.9135 10.0261C46.3786 10.1575 46.8428 10.2185 47.2938 10.2123C48.3143 10.1991 49.2585 9.82721 50.0105 9.18046C50.7625 9.82721 51.7067 10.1991 52.7272 10.2123C53.1782 10.2185 53.6424 10.1575 54.1074 10.0261C54.3602 9.95409 54.6436 9.83688 54.9314 9.67539C56.1494 9.20433 59.5136 6.68006 61.5292 5.89054C62.3996 5.54946 63.5325 5.62852 64.2064 5.80074C65.3129 6.08388 66.186 7.16531 66.2377 8.31809C66.2895 9.47051 65.5173 10.6292 64.4415 11.0125C63.7703 11.2514 63.0341 11.1661 62.5664 10.7952C62.0908 10.4181 61.8003 9.58249 62.2031 9.22997C62.9937 8.53992 62.9007 10.0029 63.9431 9.80263C64.2125 9.75099 64.8487 9.46537 64.488 8.52013C64.2696 7.94898 63.464 7.45715 62.7524 7.48386C60.5209 7.56735 60.5095 10.5041 61.9539 11.5851C62.6365 12.096 64.1274 12.1626 65.0145 11.6302C65.6779 11.2309 67.0064 10.0268 66.916 8.16353C66.8371 6.56116 65.7472 5.44308 64.2081 5.05178C63.1008 4.76962 61.3344 5.09712 60.3253 5.83606C61.9811 4.10965 61.1817 2.7999 60.7359 2.42449C59.9752 1.78395 58.902 2.04464 58.4168 2.44845C58.0017 2.79467 57.5121 3.85215 58.3378 4.6729C58.9871 5.31894 59.8628 4.59562 59.4969 4.03414C59.3434 3.79812 59.1863 3.47958 59.353 3.2747C59.5101 3.08136 59.8962 3.00123 60.148 3.11046C60.5543 3.28614 60.7781 4.02269 60.5754 4.51691C60.3016 5.18416 60.0155 5.7058 59.1038 6.29674C58.7827 6.48219 57.1655 7.43949 56.6855 7.70843C57.6262 4.5249 55.5184 3.41924 54.7779 3.26396C52.1331 2.71117 51.7979 4.82294 51.7084 5.66587C51.6277 6.41661 51.9146 7.193 52.6394 7.55493C52.9202 7.6953 53.6591 7.89041 53.9749 7.23639C54.1127 6.95245 53.7328 6.53099 53.452 6.39062C53.0808 6.20526 52.8684 5.9207 52.8386 5.56747C52.8061 5.19276 52.6552 4.05978 54.3189 3.97034C55.4991 3.90725 57.1137 5.72168 55.7791 8.01446C53.7775 10.0074 51.8199 9.22136 50.773 8.32679C50.795 8.29422 50.8248 8.27098 50.8459 8.23806C51.4241 7.32512 51.8611 5.24343 50.6976 3.25882C51.7576 2.04047 54.5041 -0.51432 62.311 1.20171C63.6887 1.50428 66.1149 2.80612 67.7847 3.83618C67.7874 3.83796 67.7909 3.83618 67.7944 3.83796C68.1191 4.45037 80.0537 4.30724 87.5114 4.33493C103.74 4.39526 100.79 3.79811 100.79 3.66679C100.79 3.53645 103.563 3.12191 87.3306 3.18047Z" fill="#E4A840" fill-opacity="0.9"/>
</svg>
