<svg width="404" height="377" viewBox="0 0 404 377" fill="none" xmlns="http://www.w3.org/2000/svg">
<path d="M208.185 0.960938C214.855 8.8518 232.912 21.5199 258.24 15.6738C276.995 11.1955 317.299 6.35954 328.475 22.8398C330.32 24.3777 334.014 28.9905 336.705 36.7217H348.121C359.167 36.7218 368.121 45.6762 368.121 56.7217V64.1465C375.046 66.7805 379.213 70.1541 380.66 71.8896C397.14 83.065 392.305 123.369 387.826 142.124C381.98 167.453 394.648 185.511 402.539 192.181H403.5C403.339 192.304 403.174 192.434 403.008 192.568C403.175 192.703 403.338 192.833 403.5 192.957H402.539C394.648 199.627 381.98 217.685 387.826 243.014C392.305 261.769 397.14 302.073 380.66 313.248C379.213 314.984 375.046 318.356 368.121 320.99V329.312C368.121 340.357 359.167 349.311 348.121 349.312H332.182C330.725 351.545 329.378 353.036 328.475 353.789C317.299 370.269 276.995 365.433 258.24 360.955C232.913 355.109 214.855 367.776 208.185 375.667V376.629C208.061 376.467 207.931 376.304 207.796 376.137C207.661 376.304 207.531 376.467 207.407 376.629V375.667C200.737 367.776 182.679 355.109 157.352 360.955C138.596 365.433 98.2926 370.269 87.1172 353.789C86.2136 353.036 84.8664 351.545 83.4102 349.312H59.4092C48.3637 349.311 39.4092 340.357 39.4092 329.312V322.333C30.0515 319.631 24.5483 315.298 22.8398 313.248C6.35958 302.073 11.1955 261.769 15.6738 243.014C21.5203 217.685 8.85181 199.627 0.960938 192.957H0C0.161441 192.833 0.324609 192.703 0.491211 192.568C0.324773 192.434 0.161287 192.304 0 192.181H0.960938C8.85181 185.511 21.5203 167.453 15.6738 142.124C11.1955 123.369 6.35957 83.065 22.8398 71.8896C24.5483 69.8401 30.0513 65.5062 39.4092 62.8037V56.7217C39.4094 45.6763 48.3638 36.7219 59.4092 36.7217H78.8867C81.5776 28.9904 85.2722 24.3777 87.1172 22.8398C98.2926 6.35955 138.596 11.1955 157.352 15.6738C182.68 21.5199 200.737 8.8518 207.407 0.960938V0C207.531 0.161437 207.661 0.324614 207.796 0.491211C207.93 0.324614 208.061 0.161437 208.185 0V0.960938Z" fill="#E6AE4E"/>
</svg>
